<?xml version="1.0" encoding="utf-8"?>
<!-- Generator: Adobe Illustrator 16.0.0, SVG Export Plug-In . SVG Version: 6.00 Build 0)  -->
<!DOCTYPE svg PUBLIC "-//W3C//DTD SVG 1.1//EN" "http://www.w3.org/Graphics/SVG/1.1/DTD/svg11.dtd">
<svg version="1.1" id="Layer_1" xmlns="http://www.w3.org/2000/svg" xmlns:xlink="http://www.w3.org/1999/xlink" x="0px" y="0px"
	 width="200px" height="200px" viewBox="0 0 200 200" enable-background="new 0 0 200 200" xml:space="preserve">
<g>
	<g>
		<path fill="#FFFFFF" d="M128.668,92.426H71.332c-25.291,0-45.866-20.576-45.866-45.867S46.041,0.694,71.332,0.694h57.336
			c25.288,0,45.866,20.574,45.866,45.865S153.956,92.426,128.668,92.426z M71.332,13.747c-18.093,0-32.813,14.72-32.813,32.813
			c0,18.094,14.72,32.813,32.813,32.813h57.336c18.091,0,32.812-14.719,32.812-32.813c0-18.093-14.721-32.813-32.812-32.813H71.332z
			"/>
	</g>
	<path fill="#5AC6CB" d="M127.808,90.424H72.192c-24.532,0-44.49-19.683-44.49-43.876c0-24.193,19.958-43.875,44.49-43.875h55.615
		c24.53,0,44.49,19.683,44.49,43.875C172.298,70.741,152.338,90.424,127.808,90.424z M72.192,15.158
		c-17.55,0-31.829,14.082-31.829,31.389s14.279,31.39,31.829,31.39h55.615c17.549,0,31.827-14.082,31.827-31.39
		s-14.278-31.389-31.827-31.389H72.192z"/>
	<g>
		<g>
			<circle fill="#FFFFFF" cx="76.346" cy="46.833" r="7.586"/>
		</g>
		<g>
			<path fill="#FFFFFF" d="M130.39,46.561c0,4.189-3.396,7.585-7.583,7.585c-4.19,0-7.588-3.396-7.588-7.585
				c0-4.191,3.397-7.586,7.588-7.586C126.993,38.975,130.39,42.37,130.39,46.561z"/>
		</g>
	</g>
	<path fill="#FFFFFF" d="M76.02,122.69c-0.591,0-1.161,0.09-1.7,0.251h3.4C77.182,122.78,76.611,122.69,76.02,122.69z"/>
	<path fill="none" d="M70.113,128.598v13.475c0,3.256,2.649,5.906,5.906,5.906s5.906-2.65,5.906-5.906v-13.475
		c0-1.45-0.527-2.779-1.398-3.808h-9.016C70.641,125.818,70.113,127.147,70.113,128.598z"/>
	<path fill="none" d="M80.531,122.303V92.611h-9.163v29.798c1.298-0.979,2.905-1.566,4.651-1.566
		C77.703,120.843,79.258,121.388,80.531,122.303z"/>
	<path fill="#FFFFFF" d="M71.368,122.409V92.611h9.163v29.691c0.716,0.516,1.342,1.146,1.847,1.869V90.765H69.521v33.618
		C70.018,123.621,70.644,122.953,71.368,122.409z"/>
	<path fill="#FFFFFF" d="M71.368,148.211v29.798h9.163v-29.692c0.716-0.514,1.342-1.146,1.847-1.868v33.406H69.521v-33.616
		C70.018,147,70.644,147.666,71.368,148.211z"/>
	<path fill="#FFFFFF" d="M82.378,124.172v0.618h-1.851c0.871,1.028,1.398,2.357,1.398,3.808v13.475c0,3.256-2.649,5.906-5.906,5.906
		s-5.906-2.65-5.906-5.906v-13.475c0-1.45,0.527-2.779,1.398-3.808h-1.991v-0.407c-0.79,1.214-1.254,2.66-1.254,4.215v13.475
		c0,4.275,3.478,7.754,7.753,7.754c4.276,0,7.754-3.479,7.754-7.754v-13.475C83.773,126.952,83.255,125.428,82.378,124.172z"/>
	<path fill="#FFFFFF" d="M77.72,122.941h2.812v-0.639c-1.273-0.915-2.828-1.46-4.512-1.46c-1.746,0-3.354,0.587-4.651,1.566v0.532
		h2.951c0.539-0.161,1.109-0.251,1.7-0.251C76.611,122.69,77.182,122.78,77.72,122.941z"/>
	<path fill="#FFFFFF" d="M80.531,122.303v0.639H77.72c1.108,0.335,2.079,0.985,2.808,1.849h1.851v-0.618
		C81.873,123.448,81.247,122.818,80.531,122.303z"/>
	<path fill="#FFFFFF" d="M71.512,124.79c0.729-0.863,1.7-1.514,2.808-1.849h-2.951v-0.532c-0.725,0.544-1.351,1.212-1.848,1.974
		v0.407H71.512z"/>
	<g>
		<g>
			<g>
				<path fill="#FFFFFF" d="M96.66,196.498c0.213,1.544-0.887,2.808-2.446,2.808H57.419c-1.559,0-2.66-1.264-2.446-2.808
					l2.179-15.747c0.213-1.544,1.664-2.808,3.223-2.808h30.884c1.559,0,3.009,1.264,3.223,2.808L96.66,196.498z M56.824,194.651
					c-0.215,1.544,0.884,2.808,2.443,2.808h33.099c1.559,0,2.658-1.264,2.443-2.808l-1.681-12.054
					c-0.215-1.544-1.667-2.808-3.226-2.808H61.73c-1.559,0-3.011,1.264-3.226,2.808L56.824,194.651z"/>
			</g>
		</g>
	</g>
	<path fill="#FFFFFF" d="M130.204,122.69c-0.592,0-1.161,0.09-1.7,0.251h3.4C131.365,122.78,130.795,122.69,130.204,122.69z"/>
	<path fill="none" d="M124.297,128.598v13.475c0,3.256,2.65,5.906,5.907,5.906c3.258,0,5.906-2.65,5.906-5.906v-13.475
		c0-1.45-0.527-2.779-1.399-3.808h-9.015C124.825,125.818,124.297,127.147,124.297,128.598z"/>
	<path fill="none" d="M134.715,122.303V92.611h-9.162v29.798c1.298-0.979,2.904-1.566,4.651-1.566
		C131.887,120.843,133.442,121.388,134.715,122.303z"/>
	<path fill="#FFFFFF" d="M125.553,122.409V92.611h9.162v29.691c0.717,0.516,1.343,1.146,1.848,1.869V90.765h-12.857v33.618
		C124.202,123.621,124.828,122.953,125.553,122.409z"/>
	<path fill="#FFFFFF" d="M125.553,148.211v29.798h9.162v-29.692c0.717-0.514,1.343-1.146,1.848-1.868v33.406h-12.857v-33.616
		C124.202,147,124.828,147.666,125.553,148.211z"/>
	<path fill="#FFFFFF" d="M136.563,124.172v0.618h-1.852c0.872,1.028,1.399,2.357,1.399,3.808v13.475
		c0,3.256-2.648,5.906-5.906,5.906c-3.257,0-5.907-2.65-5.907-5.906v-13.475c0-1.45,0.528-2.779,1.399-3.808h-1.991v-0.407
		c-0.79,1.214-1.255,2.66-1.255,4.215v13.475c0,4.275,3.478,7.754,7.754,7.754s7.754-3.479,7.754-7.754v-13.475
		C137.958,126.952,137.439,125.428,136.563,124.172z"/>
	<path fill="#FFFFFF" d="M131.904,122.941h2.811v-0.639c-1.272-0.915-2.828-1.46-4.511-1.46c-1.747,0-3.354,0.587-4.651,1.566v0.532
		h2.951c0.539-0.161,1.108-0.251,1.7-0.251C130.795,122.69,131.365,122.78,131.904,122.941z"/>
	<path fill="#FFFFFF" d="M134.715,122.303v0.639h-2.811c1.108,0.335,2.079,0.985,2.807,1.849h1.852v-0.618
		C136.058,123.448,135.432,122.818,134.715,122.303z"/>
	<path fill="#FFFFFF" d="M125.696,124.79c0.729-0.863,1.7-1.514,2.808-1.849h-2.951v-0.532c-0.725,0.544-1.351,1.212-1.848,1.974
		v0.407H125.696z"/>
	<g>
		<g>
			<g>
				<path fill="#FFFFFF" d="M150.843,196.498c0.214,1.544-0.887,2.808-2.446,2.808h-36.793c-1.56,0-2.66-1.264-2.446-2.808
					l2.179-15.747c0.214-1.544,1.664-2.808,3.224-2.808h30.883c1.56,0,3.01,1.264,3.224,2.808L150.843,196.498z M111.009,194.651
					c-0.216,1.544,0.884,2.808,2.443,2.808h33.098c1.56,0,2.659-1.264,2.443-2.808l-1.681-12.054
					c-0.216-1.544-1.667-2.808-3.227-2.808h-28.171c-1.56,0-3.011,1.264-3.227,2.808L111.009,194.651z"/>
			</g>
		</g>
	</g>
</g>
</svg>
